<?xml version="1.0" standalone="no"?>
<svg version="1.0" xmlns="http://www.w3.org/2000/svg"
 width="534.000000pt" height="534.000000pt" viewBox="0 0 534.000000 534.000000"
 preserveAspectRatio="xMidYMid meet">

<g transform="translate(0.000000,534.000000) scale(0.100000,-0.100000)"
fill="#000000" stroke="none">
<path d="M3418 3820 c-37 -37 -34 -59 19 -140 137 -209 436 -370 688 -370 57
0 69 3 92 26 20 20 24 31 19 57 -10 49 -32 63 -141 90 -199 49 -370 143 -509
280 -102 100 -119 106 -168 57z"/>
<path d="M1725 3471 c-163 -154 -346 -251 -547 -291 -65 -13 -98 -44 -98 -91
0 -51 30 -69 114 -69 141 0 314 52 436 132 135 89 290 264 290 327 0 37 -38
71 -78 71 -27 0 -48 -14 -117 -79z"/>
<path d="M1960 2901 c-25 -10 -129 -59 -232 -109 -220 -106 -232 -118 -225
-217 9 -120 101 -243 215 -285 77 -29 186 -25 256 9 138 68 214 218 204 406
-6 105 -25 156 -72 184 -48 30 -94 33 -146 12z"/>
<path d="M3267 2906 c-21 -8 -47 -22 -58 -32 -50 -45 -65 -229 -29 -346 53
-171 179 -265 343 -256 125 6 231 80 285 198 52 112 37 199 -42 245 -71 41
-400 192 -431 199 -16 3 -47 -1 -68 -8z"/>
<path d="M1260 2064 c-150 -32 -240 -91 -240 -158 0 -76 74 -115 148 -77 56
29 62 27 62 -17 0 -21 7 -64 15 -97 61 -233 286 -382 521 -345 89 14 151 43
252 118 103 76 134 87 252 87 131 -1 197 -23 480 -161 277 -134 373 -164 530
-164 282 0 569 173 700 421 l37 71 19 -27 c11 -15 32 -41 47 -58 25 -26 33
-29 68 -24 142 19 102 179 -73 299 -79 53 -158 80 -236 82 -58 1 -66 -2 -88
-27 -50 -59 -14 -157 57 -157 17 0 29 -5 29 -12 0 -25 -60 -117 -115 -176
-114 -124 -257 -192 -420 -200 -142 -6 -209 14 -495 153 -254 124 -362 161
-494 171 -158 12 -277 -24 -418 -129 -88 -65 -121 -79 -190 -81 -160 -4 -280
109 -282 264 l-1 65 66 -3 c63 -4 67 -2 92 28 56 66 17 142 -82 160 -72 13
-162 11 -241 -6z"/>
</g>
</svg>
